<?xml version="1.0" encoding="UTF-8"?>
<svg version="1.1" viewBox="0 0 1024 1024" width="1024" height="1024" xmlns="http://www.w3.org/2000/svg">
<path transform="translate(220,396)" d="m0 0h28l20 4 16 6 13 7 16 12 12 12 11 15 8 16 5 15 3 17v25l-3 18-6 17-9 17-11 14-10 10-12 9-13 8-15 6-15 4-13 2h-21l-18-3-18-6-17-9-12-9-13-12-10-13-9-16-6-17-3-13-1-8v-24l3-17 5-15 8-16 10-14 10-11 14-11 15-9 18-7zm3 14-20 4-15 6-15 9-10 9-5 5-9 10-8 14-5 12-4 15-1 7v22l3 17 6 16 7 13 11 14 12 11 15 10 16 7 16 4 7 1h20l17-3 17-6 16-9 13-11 8-8 11-16 7-16 4-16 1-9v-19l-3-17-6-16-7-13-7-9-9-10-14-11-12-7-15-6-19-4z" fill="#7951D1"/>
<path transform="translate(296,453)" d="m0 0h8l4 4v7l-34 51-30 44-3 3-6 1-5-3-16-24-5-8v-7l5-4h7l6 7 9 13 1 1 8-12 39-57 10-14z" fill="#7951D1"/>
<path transform="translate(866,471)" d="m0 0h13l18 41 1-41h12v74h-12l-18-42-1-3-1 45h-11l-1-1z" fill="#7951D1"/>
<path transform="translate(651,471)" d="m0 0h12l5 10 13 31 1-41h12v74h-11l-8-16-11-27-1 43h-12z" fill="#7951D1"/>
<path transform="translate(548,471)" d="m0 0h28l6 3 5 6 2 10-2 9-4 5-2 2 5 3 4 8v12l-5 10-6 4-11 2h-20zm13 11v19h9l5-5v-10l-4-4zm0 30-1 21h11l5-4 1-4v-7l-5-6z" fill="#7A53D1"/>
<path transform="translate(706,471)" d="m0 0h26l8 4 5 6 3 7 1 6v27l-3 12-7 8-6 3-9 1h-18zm13 11v51h9l5-3 3-8v-29l-4-8-5-3z" fill="#7951D1"/>
<path transform="translate(443,471)" d="m0 0h27l8 4 5 8 1 3v14l-3 7-5 5h-2l11 28 1 5h-13l-4-8-7-19v-2h-7v29h-12zm12 11v23h9l5-3 2-6-1-9-5-5z" fill="#7951D1"/>
<path transform="translate(759,471)" d="m0 0h12v30h18v-30h13v74h-13v-32h-18v32h-12z" fill="#7951D1"/>
<path transform="translate(610,471)" d="m0 0h16l9 37 8 33v4h-13l-3-12-1-5-16-1-2 13-2 5h-12l2-12zm7 18-5 27h12l-2-12-3-15z" fill="#7A53D1"/>
<path transform="translate(826,471)" d="m0 0h16l17 71v3h-13l-3-12-1-5h-16l-4 17h-12l1-10 14-63zm7 16-5 25v4h12l-2-12-3-15z" fill="#7952D1"/>
<path transform="translate(508,471)" d="m0 0h16l16 69v5h-12l-2-6-2-12-16 1-3 15-1 2h-12l1-10 14-63zm7 16-5 25v4h12l-5-26z" fill="#7A53D1"/>
<path transform="translate(393,471)" d="m0 0h27l8 4 4 5 3 8v13l-3 9-5 5-8 4h-13v26h-12l-1-1zm13 11v26h9l5-4 2-8-1-8-2-4-4-2z" fill="#7952D1"/>
<path transform="translate(164,461)" d="m0 0h31l3 3 1 26-2 9-2 1h-31l-4-4v-31z" fill="#7850D1"/>
<path transform="translate(168,509)" d="m0 0h24l6 3v33l-3 3h-31l-4-4v-31l3-3z" fill="#7A53D1"/>
<path transform="translate(213,461)" d="m0 0h29l4 3v33l-3 3h-30l-4-4v-31z" fill="#7850D1"/>
</svg>
